<svg xmlns="http://www.w3.org/2000/svg" viewBox="0 0 655.8 437.08"><defs><style>.cls-1{fill:#80b1cb;}.cls-2{fill:#583cd0;}.cls-3{fill:#5280f2;}</style></defs><title>sndwave main logo</title><g id="Layer_2" data-name="Layer 2"><g id="Layer_1-2" data-name="Layer 1"><path class="cls-1" d="M232.77,72.62a12,12,0,1,0-12-12,12,12,0,0,0,12,12"/><path class="cls-1" d="M422.65,72.62a12,12,0,1,0-12-12,12,12,0,0,0,12,12"/><path class="cls-2" d="M137,121.26a12.66,12.66,0,1,0-12.65-12.66A12.68,12.68,0,0,0,137,121.26"/><path class="cls-2" d="M327.67,25.32A12.66,12.66,0,1,0,315,12.66a12.68,12.68,0,0,0,12.66,12.66"/><path class="cls-2" d="M518.63,121.26A12.66,12.66,0,1,0,506,108.6a12.68,12.68,0,0,0,12.66,12.66"/><path class="cls-2" d="M652.47,238.53H614.58v0c-35.41,0-53.88-34.86-68.72-62.87-9.84-18.58-17.62-33.24-28.55-33.24s-18.57,14.76-28.17,33.45c-4.45,8.65-9.24,18-14.77,26.7,11.34,20.49,25.54,36,44.2,36a3.33,3.33,0,0,1,0,6.66c-18.35,0-32.23,15.37-43.26,35.74,5.78,8.83,10.8,18.27,15.45,27,9.84,18.55,17.61,33.2,28.54,33.2s18.57-14.74,28.18-33.41c14.31-27.8,32.11-62.39,66.83-62.56l.27,0h37.89a3.34,3.34,0,0,0,0-6.67"/><path class="cls-2" d="M327.67,238.43c22.72-1.12,38.48-26.12,50.46-54.28-8.51-22.72-15.27-49.07-21.11-71.84C346,69.16,339.66,46.65,328.66,46.65S311.28,69,299.93,111.94c-6.15,23.25-13.29,50.23-22.25,73.29,11.91,27.72,27.56,52.09,50,53.2"/><path class="cls-2" d="M327.67,245.23c-22.67,1.09-38.68,25.34-50.94,53,8.73,23,15.64,49.95,21.59,73.15,11.07,43.17,17.36,65.69,28.36,65.69s17.38-22.4,28.73-65.32c6.26-23.67,13.55-51.21,22.74-74.55-12.2-27.23-28.08-50.9-50.48-52"/><path class="cls-2" d="M136.78,245.16a3.33,3.33,0,1,1,0-6.66c18.65,0,32.85-15.47,44.19-36-5.53-8.73-10.32-18-14.76-26.7C156.6,157.15,149,142.39,138,142.39s-18.7,14.66-28.54,33.24c-14.84,28-33.32,62.87-68.72,62.87v0H3.33a3.34,3.34,0,0,0,0,6.67h37.9l.15,0c34.49.41,52.23,34.84,66.48,62.55,9.61,18.67,17.19,33.41,28.18,33.41s18.7-14.65,28.54-33.2c4.66-8.77,9.67-18.21,15.45-27-11-20.37-24.91-35.74-43.25-35.74"/><path class="cls-1" d="M422.85,238.47c23.62-.37,39.36-16.74,51.52-35.93-10-18-17.72-39.92-24.33-58.59-11.15-31.51-18-49.33-28.74-49.33s-17.49,17.93-28.37,49.61c-4.31,12.55-9.13,26.59-14.8,39.92,11.24,30,25.52,53.71,44.72,54.32"/><path class="cls-1" d="M422.85,245.19c-19,.58-33.29,23.07-44.7,52,6.32,14.11,11.66,29.18,16.39,42.56,11.16,31.51,18,49.34,28.75,49.34s17.49-17.94,28.36-49.64c6.41-18.67,13.92-40.57,23.66-58.57-12.5-19.11-28.6-35.35-52.46-35.71"/><path class="cls-1" d="M232.49,245.19c-23.85.36-40,16.61-52.46,35.71,9.74,18,17.26,39.9,23.66,58.57,10.88,31.7,17.56,49.64,28.36,49.64s17.6-17.83,28.75-49.34c4.62-13.06,9.81-27.72,15.93-41.53-11.16-29.43-25.31-52.45-44.24-53.05"/><path class="cls-1" d="M232.49,238.47c19.23-.6,33.71-23.7,45.19-53.24-5.87-13.65-10.84-28.11-15.27-41-10.88-31.68-17.56-49.61-28.36-49.61S216.45,112.44,205.3,144c-6.61,18.67-14.36,40.57-24.33,58.59,12.16,19.19,27.9,35.56,51.52,35.93"/><path class="cls-2" d="M518.57,245.16a3.33,3.33,0,0,0,0-6.66c-18.66,0-32.86-15.47-44.2-36-12.16,19.19-27.9,35.56-51.52,35.93-19.21-.61-33.48-24.29-44.72-54.32-12,28.16-27.74,53.16-50.46,54.28-22.43-1.11-38.08-25.48-50-53.2-11.48,29.53-26,52.64-45.18,53.24-23.62-.37-39.37-16.74-51.53-35.93-11.34,20.49-25.54,36-44.19,36a3.33,3.33,0,1,0,0,6.66c18.35,0,32.22,15.37,43.25,35.74,12.51-19.11,28.61-35.35,52.46-35.71,18.93.6,33.08,23.62,44.24,53.05,12.27-27.67,28.27-51.92,50.94-53,22.4,1.08,38.28,24.74,50.48,52,11.41-28.95,25.74-51.44,44.7-52,23.86.36,39.95,16.6,52.46,35.71,11-20.37,24.91-35.74,43.26-35.74"/><path class="cls-3" d="M518.57,245.16a3.33,3.33,0,0,0,0-6.66c-18.66,0-32.86-15.47-44.2-36-12.16,19.19-27.9,35.56-51.52,35.93-19.21-.61-33.48-24.29-44.72-54.32-12,28.16-27.74,53.16-50.46,54.28-22.43-1.11-38.08-25.48-50-53.2-11.48,29.53-26,52.64-45.18,53.24-23.62-.37-39.37-16.74-51.53-35.93-11.34,20.49-25.54,36-44.19,36a3.33,3.33,0,1,0,0,6.66c18.35,0,32.22,15.37,43.25,35.74,12.51-19.11,28.61-35.35,52.46-35.71,18.93.6,33.08,23.62,44.24,53.05,12.27-27.67,28.27-51.92,50.94-53,22.4,1.08,38.28,24.74,50.48,52,11.41-28.95,25.74-51.44,44.7-52,23.86.36,39.95,16.6,52.46,35.71,11-20.37,24.91-35.74,43.26-35.74"/></g></g></svg>